<mxfile host="app.diagrams.net" modified="2020-05-28T04:21:02.054Z" agent="5.0 (Macintosh; Intel Mac OS X 10_15_4) AppleWebKit/605.1.15 (KHTML, like Gecko) Version/13.1 Safari/605.1.15" etag="MdZq2Ai3F_evB05Ded53" version="13.1.5" type="github">
  <diagram id="wQJFWhKX6yY5fVJJ2bR1" name="Page-1">
    <mxGraphModel dx="1426" dy="842" grid="1" gridSize="10" guides="1" tooltips="1" connect="1" arrows="1" fold="1" page="1" pageScale="1" pageWidth="827" pageHeight="1169" math="0" shadow="0">
      <root>
        <mxCell id="0" />
        <mxCell id="1" parent="0" />
        <mxCell id="CsIr5_K--YzS9U5XCtDT-9" value="" style="edgeStyle=orthogonalEdgeStyle;rounded=0;orthogonalLoop=1;jettySize=auto;html=1;" edge="1" parent="1" source="CsIr5_K--YzS9U5XCtDT-1" target="CsIr5_K--YzS9U5XCtDT-2">
          <mxGeometry relative="1" as="geometry" />
        </mxCell>
        <mxCell id="CsIr5_K--YzS9U5XCtDT-1" value="UserServiceTest" style="rounded=0;whiteSpace=wrap;html=1;" vertex="1" parent="1">
          <mxGeometry x="40" y="310" width="120" height="60" as="geometry" />
        </mxCell>
        <mxCell id="CsIr5_K--YzS9U5XCtDT-10" value="" style="edgeStyle=orthogonalEdgeStyle;rounded=0;orthogonalLoop=1;jettySize=auto;html=1;" edge="1" parent="1" source="CsIr5_K--YzS9U5XCtDT-2" target="CsIr5_K--YzS9U5XCtDT-4">
          <mxGeometry relative="1" as="geometry" />
        </mxCell>
        <mxCell id="CsIr5_K--YzS9U5XCtDT-11" style="edgeStyle=orthogonalEdgeStyle;rounded=0;orthogonalLoop=1;jettySize=auto;html=1;entryX=0;entryY=0.5;entryDx=0;entryDy=0;" edge="1" parent="1" source="CsIr5_K--YzS9U5XCtDT-2" target="CsIr5_K--YzS9U5XCtDT-3">
          <mxGeometry relative="1" as="geometry" />
        </mxCell>
        <mxCell id="CsIr5_K--YzS9U5XCtDT-12" style="edgeStyle=orthogonalEdgeStyle;rounded=0;orthogonalLoop=1;jettySize=auto;html=1;entryX=0;entryY=0.75;entryDx=0;entryDy=0;" edge="1" parent="1" source="CsIr5_K--YzS9U5XCtDT-2" target="CsIr5_K--YzS9U5XCtDT-5">
          <mxGeometry relative="1" as="geometry" />
        </mxCell>
        <mxCell id="CsIr5_K--YzS9U5XCtDT-2" value="UserService" style="rounded=0;whiteSpace=wrap;html=1;" vertex="1" parent="1">
          <mxGeometry x="210" y="310" width="120" height="60" as="geometry" />
        </mxCell>
        <mxCell id="CsIr5_K--YzS9U5XCtDT-13" value="" style="edgeStyle=orthogonalEdgeStyle;rounded=0;orthogonalLoop=1;jettySize=auto;html=1;" edge="1" parent="1" source="CsIr5_K--YzS9U5XCtDT-3" target="CsIr5_K--YzS9U5XCtDT-6">
          <mxGeometry relative="1" as="geometry" />
        </mxCell>
        <mxCell id="CsIr5_K--YzS9U5XCtDT-3" value="UserDaojdbc" style="rounded=0;whiteSpace=wrap;html=1;" vertex="1" parent="1">
          <mxGeometry x="370" y="230" width="120" height="60" as="geometry" />
        </mxCell>
        <mxCell id="CsIr5_K--YzS9U5XCtDT-14" style="edgeStyle=orthogonalEdgeStyle;rounded=0;orthogonalLoop=1;jettySize=auto;html=1;" edge="1" parent="1" source="CsIr5_K--YzS9U5XCtDT-4">
          <mxGeometry relative="1" as="geometry">
            <mxPoint x="580" y="300" as="targetPoint" />
          </mxGeometry>
        </mxCell>
        <mxCell id="CsIr5_K--YzS9U5XCtDT-4" value="DSTransactionManager" style="rounded=0;whiteSpace=wrap;html=1;" vertex="1" parent="1">
          <mxGeometry x="370" y="310" width="150" height="60" as="geometry" />
        </mxCell>
        <mxCell id="CsIr5_K--YzS9U5XCtDT-5" value="JavaMailSenderImpl" style="rounded=0;whiteSpace=wrap;html=1;" vertex="1" parent="1">
          <mxGeometry x="370" y="390" width="120" height="60" as="geometry" />
        </mxCell>
        <mxCell id="CsIr5_K--YzS9U5XCtDT-19" value="" style="edgeStyle=orthogonalEdgeStyle;rounded=0;orthogonalLoop=1;jettySize=auto;html=1;" edge="1" parent="1" source="CsIr5_K--YzS9U5XCtDT-6" target="CsIr5_K--YzS9U5XCtDT-17">
          <mxGeometry relative="1" as="geometry" />
        </mxCell>
        <mxCell id="CsIr5_K--YzS9U5XCtDT-6" value="XXDataSource" style="rounded=0;whiteSpace=wrap;html=1;" vertex="1" parent="1">
          <mxGeometry x="520" y="230" width="120" height="60" as="geometry" />
        </mxCell>
        <mxCell id="CsIr5_K--YzS9U5XCtDT-20" value="" style="edgeStyle=orthogonalEdgeStyle;rounded=0;orthogonalLoop=1;jettySize=auto;html=1;" edge="1" parent="1" source="CsIr5_K--YzS9U5XCtDT-16" target="CsIr5_K--YzS9U5XCtDT-18">
          <mxGeometry relative="1" as="geometry" />
        </mxCell>
        <mxCell id="CsIr5_K--YzS9U5XCtDT-16" value="JavaMail" style="rounded=0;whiteSpace=wrap;html=1;" vertex="1" parent="1">
          <mxGeometry x="520" y="390" width="120" height="60" as="geometry" />
        </mxCell>
        <mxCell id="CsIr5_K--YzS9U5XCtDT-17" value="DB" style="shape=cylinder;whiteSpace=wrap;html=1;boundedLbl=1;backgroundOutline=1;" vertex="1" parent="1">
          <mxGeometry x="700" y="220" width="60" height="80" as="geometry" />
        </mxCell>
        <mxCell id="CsIr5_K--YzS9U5XCtDT-18" value="Mail Server" style="shape=note;whiteSpace=wrap;html=1;backgroundOutline=1;darkOpacity=0.05;" vertex="1" parent="1">
          <mxGeometry x="690" y="370" width="80" height="100" as="geometry" />
        </mxCell>
      </root>
    </mxGraphModel>
  </diagram>
</mxfile>
